<svg preserveAspectRatio="none" width="100%" height="100%" overflow="visible" style="display: block;" viewBox="0 0 25.2 30.24" fill="none" xmlns="http://www.w3.org/2000/svg">
<g id="Apple">
<path id="&#60;Path&#62;" d="M21.0477 16.0816C21.063 14.9225 21.3783 13.786 21.9644 12.7779C22.5505 11.7698 23.3882 10.9227 24.3996 10.3157C23.7571 9.41973 22.9094 8.68242 21.9239 8.16228C20.9385 7.64215 19.8423 7.35352 18.7226 7.31932C16.3341 7.07454 14.0185 8.71471 12.8013 8.71471C11.5606 8.71471 9.68657 7.34362 7.66856 7.38415C6.36326 7.42532 5.09115 7.7959 3.97616 8.45977C2.86117 9.12364 1.94134 10.0582 1.30629 11.1723C-1.44457 15.8222 0.607326 22.656 3.24246 26.4146C4.56088 28.2551 6.10173 30.311 8.11792 30.2381C10.0909 30.1582 10.8277 29.0098 13.2092 29.0098C15.5687 29.0098 16.26 30.2381 18.3171 30.1918C20.4342 30.1582 21.768 28.3431 23.0402 26.4852C23.9875 25.1737 24.7164 23.7243 25.2 22.1906C23.97 21.6828 22.9204 20.8326 22.182 19.7463C21.4436 18.6599 21.0491 17.3854 21.0477 16.0816Z" fill="var(--fill-0, white)"/>
<path id="&#60;Path&#62;_2" d="M17.1622 4.84738C18.3165 3.49452 18.8852 1.75563 18.7475 0C16.984 0.180834 15.355 1.00371 14.1851 2.30467C13.6131 2.94023 13.175 3.67961 12.8958 4.48057C12.6167 5.28152 12.502 6.12833 12.5583 6.97259C13.4403 6.98146 14.313 6.7948 15.1105 6.42668C15.9079 6.05855 16.6095 5.51857 17.1622 4.84738Z" fill="var(--fill-0, white)"/>
</g>
</svg>
